<?xml version="1.0" encoding="utf-8"?>
<!-- Generator: Adobe Illustrator 16.0.0, SVG Export Plug-In . SVG Version: 6.00 Build 0)  -->
<!DOCTYPE svg PUBLIC "-//W3C//DTD SVG 1.1//EN" "http://www.w3.org/Graphics/SVG/1.1/DTD/svg11.dtd">
<svg version="1.1" id="Layer_1" xmlns:ev="http://www.w3.org/2001/xml-events"
	 xmlns="http://www.w3.org/2000/svg" xmlns:xlink="http://www.w3.org/1999/xlink" x="0px" y="0px" width="800px" height="600px"
	 viewBox="0 0 800 600" enable-background="new 0 0 800 600" xml:space="preserve">
<g>
	<g transform="matrix(1.0 0.0 0.0 1.0 0.0 0.0)">
		<path fill="#EDA3F5" d="M266.45,251.8l1.4,0.15c0.367,0.1,0.55,0.216,0.55,0.35l-0.55,0.3l-1.4,0.15l-1.4-0.15
			c-0.367-0.1-0.55-0.2-0.55-0.3c0-0.133,0.183-0.25,0.55-0.35L266.45,251.8z M266.2,254.6l-2.9,0.3l-2.85-0.3
			c-0.8-0.167-1.2-0.383-1.2-0.65s0.4-0.5,1.2-0.7l2.85-0.3l2.9,0.3c0.8,0.2,1.2,0.434,1.2,0.7S267,254.434,266.2,254.6z
			 M257.45,251.2l2.75,0.3c0.733,0.167,1.1,0.383,1.1,0.65s-0.367,0.483-1.1,0.65l-2.75,0.25l-2.75-0.25
			c-0.767-0.167-1.15-0.383-1.15-0.65s0.383-0.483,1.15-0.65L257.45,251.2z"/>
		<path fill="#E98AF4" d="M267.85,251.95l-1.4-0.15l-1.4,0.15c-0.367,0.1-0.55,0.216-0.55,0.35c0,0.1,0.183,0.2,0.55,0.3l1.4,0.15
			l1.4-0.15l0.55-0.3C268.4,252.167,268.217,252.05,267.85,251.95z M263.3,254.9l2.9-0.3c0.8-0.167,1.2-0.383,1.2-0.65
			s-0.4-0.5-1.2-0.7l-2.9-0.3l-2.85,0.3c-0.8,0.2-1.2,0.434-1.2,0.7s0.4,0.483,1.2,0.65L263.3,254.9z M260.2,251.5l-2.75-0.3
			l-2.75,0.3c-0.767,0.167-1.15,0.383-1.15,0.65s0.383,0.483,1.15,0.65l2.75,0.25l2.75-0.25c0.733-0.167,1.1-0.383,1.1-0.65
			S260.933,251.667,260.2,251.5z M270.75,251.55c5.2,1.233,7.8,2.717,7.8,4.45c0,0.733-0.417,1.4-1.25,2h-50.55
			c-0.867-0.6-1.3-1.267-1.3-2c0-1.733,2.583-3.217,7.75-4.45c5.167-1.233,11.433-1.85,18.8-1.85
			C259.333,249.7,265.583,250.316,270.75,251.55z"/>
		<path fill="#80BE1F" d="M297,199.15c0.167-6.1,3.383-9.15,9.65-9.15h50.699c6.267,0,9.483,3.05,9.65,9.15v12.35L355.35,200
			l-11.699,11.5L332.05,200l-11.7,11.5L308.65,200L297,211.5V199.15z"/>
		<path fill="#93DB24" d="M306.65,190c-6.267,0-9.484,3.05-9.65,9.15v-1.5c0-6.433,3.217-9.65,9.65-9.65h50.699
			c6.434,0,9.65,3.217,9.65,9.65v1.5c-0.167-6.1-3.384-9.15-9.65-9.15H306.65z"/>
		<path fill="#BB8044" d="M297,211.5l11.65-11.5l11.699,11.5l11.7-11.5l11.601,11.5L355.35,200L367,211.5v5L355.35,205l-11.699,11.5
			L332.05,205l-11.7,11.5L308.65,205L297,216.5V211.5z"/>
		<path fill="#C58F5C" d="M297,216.5l11.65-11.5l11.699,11.5l11.7-11.5l11.601,11.5L355.35,205L367,216.5v10L355.35,215
			l-11.699,11.5L332.05,215l-11.7,11.5L308.65,215L297,226.5V216.5z M297,241.5h0.05l10.15-10.05l1.45-1.45l11.699,11.5l11.7-11.5
			l11.601,11.5L355.35,230L367,241.5v7.35c-0.066,2.466-0.634,4.45-1.7,5.95L355.4,245l-11.7,11.5L332.1,245L320.4,256.5L308.7,245
			l-9.95,9.85c-1.1-1.5-1.684-3.5-1.75-6V241.5z"/>
		<path fill="#C99869" d="M297.05,241.5H297v-15l11.65-11.5l11.699,11.5l11.7-11.5l11.601,11.5L355.35,215L367,226.5v15L355.35,230
			l-11.699,11.5L332.05,230l-11.7,11.5L308.65,230l-1.45,1.45L297.05,241.5z M298.75,254.85l9.95-9.85l11.7,11.5L332.1,245
			l11.601,11.5l11.7-11.5l9.899,9.8l-1.25,1.3c-1.6,1.267-3.833,1.9-6.7,1.9H306.65c-2.867,0-5.101-0.633-6.7-1.9L298.75,254.85z"/>
		<path fill="#DAAE03" d="M439.8,195.45c0.767,0.8,1.15,1.733,1.15,2.8c0,1.1-0.384,2.033-1.15,2.8
			c-0.5,0.534-1.083,0.884-1.75,1.05l-1.05,0.15l-1.05-0.15c-0.667-0.167-1.25-0.517-1.75-1.05c-0.767-0.767-1.15-1.7-1.15-2.8
			c0-1.066,0.384-2,1.15-2.8c0.5-0.5,1.083-0.833,1.75-1l1.05-0.15l1.05,0.15C438.717,194.617,439.3,194.95,439.8,195.45z
			 M418.65,209.1v0.45c-0.2-1.2-0.767-2.3-1.7-3.3c-1.3-1.333-2.934-2-4.9-2c-2,0-3.666,0.667-5,2c-0.899,1-1.434,2.1-1.6,3.3
			l-0.05-0.45c-0.134-1.733,0.416-3.267,1.649-4.6c1.334-1.333,2.983-2,4.95-2c2,0,3.65,0.667,4.95,2
			C418.217,205.833,418.783,207.367,418.65,209.1z M412,202.5h0.05H412z M412.05,204.25H412H412.05z M408.55,237.4
			c-0.733,0.767-1.166,1.65-1.3,2.65l-0.1-0.9c0-1.367,0.466-2.533,1.399-3.5c0.967-0.933,2.134-1.4,3.5-1.4
			c1.334,0,2.467,0.467,3.4,1.4c0.967,0.967,1.45,2.133,1.45,3.5l-0.051,0.9c-0.166-1-0.633-1.883-1.399-2.65
			c-0.934-0.933-2.066-1.4-3.4-1.4C410.684,236,409.517,236.467,408.55,237.4z M434.2,251.05c-0.767-0.767-1.15-1.7-1.15-2.8
			c0-1.066,0.384-2,1.15-2.8c0.5-0.5,1.083-0.833,1.75-1l1.05-0.15l1.05,0.15c0.667,0.167,1.25,0.5,1.75,1
			c0.767,0.8,1.15,1.733,1.15,2.8c0,1.1-0.384,2.033-1.15,2.8c-0.5,0.534-1.083,0.884-1.75,1.05l-1.05,0.15l-1.05-0.15
			C435.283,251.934,434.7,251.583,434.2,251.05z M388.05,194.45c0.667,0.167,1.25,0.5,1.75,1c0.767,0.8,1.15,1.733,1.15,2.8
			c0,1.1-0.384,2.033-1.15,2.8c-0.5,0.534-1.083,0.884-1.75,1.05l-1.05,0.15l-1.05-0.15c-0.667-0.167-1.25-0.517-1.75-1.05
			c-0.767-0.767-1.15-1.7-1.15-2.8c0-1.066,0.384-2,1.15-2.8c0.5-0.5,1.083-0.833,1.75-1l1.05-0.15L388.05,194.45z M387,244.3
			l1.05,0.15c0.667,0.167,1.25,0.5,1.75,1c0.767,0.8,1.15,1.733,1.15,2.8c0,1.1-0.384,2.033-1.15,2.8
			c-0.5,0.534-1.083,0.884-1.75,1.05l-1.05,0.15l-1.05-0.15c-0.667-0.167-1.25-0.517-1.75-1.05c-0.767-0.767-1.15-1.7-1.15-2.8
			c0-1.066,0.384-2,1.15-2.8c0.5-0.5,1.083-0.833,1.75-1L387,244.3z"/>
		<path fill="#FFCC00" d="M440.95,198.25c0-1.066-0.384-2-1.15-2.8c-0.5-0.5-1.083-0.833-1.75-1L437,194.3l-1.05,0.15
			c-0.667,0.167-1.25,0.5-1.75,1c-0.767,0.8-1.15,1.733-1.15,2.8c0,1.1,0.384,2.033,1.15,2.8c0.5,0.534,1.083,0.884,1.75,1.05
			l1.05,0.15l1.05-0.15c0.667-0.167,1.25-0.517,1.75-1.05C440.566,200.283,440.95,199.35,440.95,198.25z M377,199.15
			c0.167-6.1,3.384-9.15,9.65-9.15h50.699c6.267,0,9.483,3.05,9.65,9.15v49.7c-0.066,2.466-0.634,4.45-1.7,5.95l-1.25,1.3
			c-1.6,1.267-3.833,1.9-6.7,1.9H386.65c-2.867,0-5.101-0.633-6.7-1.9l-1.2-1.25c-1.1-1.5-1.684-3.5-1.75-6V199.15z M418.65,209.55
			v-0.45c0.133-1.733-0.434-3.267-1.7-4.6c-1.3-1.333-2.934-2-4.9-2c-2,0-3.666,0.667-5,2c-1.233,1.333-1.783,2.867-1.649,4.6
			l0.05,0.45c-0.066,0.4-0.084,0.833-0.05,1.3l1.5,19.15c0.066,1,0.6,1.833,1.6,2.5s2.167,1,3.5,1c1.366,0,2.533-0.333,3.5-1
			c1.033-0.667,1.6-1.5,1.7-2.5l1.45-19.15V209.55z M412.05,202.5H412H412.05z M412,233.5h0.05H412z M416.85,240.05l0.051-0.9
			c0-1.367-0.483-2.533-1.45-3.5c-0.934-0.933-2.066-1.4-3.4-1.4c-1.366,0-2.533,0.467-3.5,1.4c-0.934,0.967-1.399,2.133-1.399,3.5
			l0.1,0.9l-0.1,0.85c0,1.333,0.466,2.467,1.399,3.4c0.967,0.967,2.134,1.45,3.5,1.45c1.334,0,2.467-0.483,3.4-1.45
			c0.967-0.933,1.45-2.066,1.45-3.4L416.85,240.05z M433.05,248.25c0,1.1,0.384,2.033,1.15,2.8c0.5,0.534,1.083,0.884,1.75,1.05
			l1.05,0.15l1.05-0.15c0.667-0.167,1.25-0.517,1.75-1.05c0.767-0.767,1.15-1.7,1.15-2.8c0-1.066-0.384-2-1.15-2.8
			c-0.5-0.5-1.083-0.833-1.75-1L437,244.3l-1.05,0.15c-0.667,0.167-1.25,0.5-1.75,1C433.434,246.25,433.05,247.184,433.05,248.25z
			 M389.8,195.45c-0.5-0.5-1.083-0.833-1.75-1L387,194.3l-1.05,0.15c-0.667,0.167-1.25,0.5-1.75,1c-0.767,0.8-1.15,1.733-1.15,2.8
			c0,1.1,0.384,2.033,1.15,2.8c0.5,0.534,1.083,0.884,1.75,1.05l1.05,0.15l1.05-0.15c0.667-0.167,1.25-0.517,1.75-1.05
			c0.767-0.767,1.15-1.7,1.15-2.8C390.95,197.184,390.566,196.25,389.8,195.45z M388.05,244.45L387,244.3l-1.05,0.15
			c-0.667,0.167-1.25,0.5-1.75,1c-0.767,0.8-1.15,1.733-1.15,2.8c0,1.1,0.384,2.033,1.15,2.8c0.5,0.534,1.083,0.884,1.75,1.05
			l1.05,0.15l1.05-0.15c0.667-0.167,1.25-0.517,1.75-1.05c0.767-0.767,1.15-1.7,1.15-2.8c0-1.066-0.384-2-1.15-2.8
			C389.3,244.95,388.717,244.617,388.05,244.45z"/>
		<path fill="#FEE481" d="M447,197.65v1.5c-0.167-6.1-3.384-9.15-9.65-9.15H386.65c-6.267,0-9.483,3.05-9.65,9.15v-1.5
			c0-6.433,3.217-9.65,9.65-9.65h50.699C443.783,188,447,191.217,447,197.65z"/>
		<path fill="#FFFFFF" d="M405.45,209.55c0.166-1.2,0.7-2.3,1.6-3.3c1.334-1.333,2.983-2,4.95-2c2,0,3.65,0.667,4.95,2
			c0.934,1,1.5,2.1,1.7,3.3v1.3L417.2,230c-0.101,1-0.667,1.833-1.7,2.5c-0.967,0.667-2.116,1-3.45,1c-1.366,0-2.55-0.333-3.55-1
			s-1.533-1.5-1.6-2.5l-1.5-19.15C405.366,210.383,405.384,209.95,405.45,209.55z M412,204.25h0.05H412z M412.05,233.5H412H412.05z
			 M407.25,240.05c0.134-1,0.566-1.883,1.3-2.65c0.967-0.933,2.134-1.4,3.5-1.4c1.334,0,2.467,0.467,3.4,1.4
			c0.767,0.767,1.233,1.65,1.399,2.65l0.051,0.85c0,1.333-0.483,2.467-1.45,3.4c-0.934,0.967-2.066,1.45-3.4,1.45
			c-1.366,0-2.533-0.483-3.5-1.45c-0.934-0.933-1.399-2.066-1.399-3.4L407.25,240.05z"/>
		<path fill="#C58F5C" d="M457.6,195.45c1.2-3.634,4.217-5.45,9.051-5.45h50.699c6.267,0,9.483,3.05,9.65,9.15v41.9l-0.6-0.05h-3.65
			c-1.934,0-2.9,0.967-2.9,2.9v3.65c0,1.967,0.967,2.95,2.9,2.95h3.65h0.5c-0.233,1.7-0.767,3.133-1.601,4.3l-1.25,1.3
			c-1.6,1.267-3.833,1.9-6.7,1.9H466.65c-2.867,0-5.101-0.633-6.7-1.9l-1.2-1.25c-1.1-1.5-1.684-3.5-1.75-6V218.7h14.65
			c2.666,0,4-1.333,4-4v-15.25c0-2.667-1.334-4-4-4H457.6z M480.4,204.2c0,2.667,1.333,4,4,4h5.75c2.666,0,4-1.333,4-4v-5.75
			c0-2.667-1.334-4-4-4h-5.75c-2.667,0-4,1.333-4,4V204.2z M503.15,230.15c-2.667,0-4,1.333-4,4v7.35c0,2.667,1.333,4,4,4h7.35
			c2.667,0,4-1.333,4-4v-7.35c0-2.667-1.333-4-4-4H503.15z M488.65,213.35c0-1.934-0.983-2.9-2.95-2.9h-3.65
			c-1.934,0-2.899,0.966-2.899,2.9V217c0,1.967,0.966,2.95,2.899,2.95h3.65c1.967,0,2.95-0.983,2.95-2.95V213.35z M497,241
			c0-2.233-1.1-3.35-3.3-3.35h-6.2c-2.233,0-3.35,1.117-3.35,3.35v6.15c0,2.233,1.116,3.35,3.35,3.35h6.2c2.2,0,3.3-1.117,3.3-3.35
			V241z"/>
		<path fill="#D3AD89" d="M466.65,190c-4.834,0-7.851,1.816-9.051,5.45c-0.366,1.066-0.566,2.3-0.6,3.7v-1.5v-0.25
			c0-0.7,0.05-1.35,0.15-1.95l0.1-0.45l0.05-0.45l0.05-0.1c0.934-4.3,4.034-6.45,9.301-6.45h50.699c6.434,0,9.65,3.217,9.65,9.65
			v1.5c-0.167-6.1-3.384-9.15-9.65-9.15H466.65z"/>
		<path fill="#AE7640" d="M457,199.15c0.033-1.4,0.233-2.633,0.6-3.7h14.051c2.666,0,4,1.333,4,4v15.25c0,2.667-1.334,4-4,4H457
			V199.15z M526.9,250.5h-0.5h-3.65c-1.934,0-2.9-0.983-2.9-2.95v-3.65c0-1.933,0.967-2.9,2.9-2.9h3.65l0.6,0.05v7.8v0.65
			L526.9,250.5z M499.15,234.15c0-2.667,1.333-4,4-4h7.35c2.667,0,4,1.333,4,4v7.35c0,2.667-1.333,4-4,4h-7.35c-2.667,0-4-1.333-4-4
			V234.15z M485.7,210.45c1.967,0,2.95,0.966,2.95,2.9V217c0,1.967-0.983,2.95-2.95,2.95h-3.65c-1.934,0-2.899-0.983-2.899-2.95
			v-3.65c0-1.934,0.966-2.9,2.899-2.9H485.7z"/>
		<path fill="#BB8044" d="M484.4,208.2c-2.667,0-4-1.333-4-4v-5.75c0-2.667,1.333-4,4-4h5.75c2.666,0,4,1.333,4,4v5.75
			c0,2.667-1.334,4-4,4H484.4z M493.7,237.65c2.2,0,3.3,1.117,3.3,3.35v6.15c0,2.233-1.1,3.35-3.3,3.35h-6.2
			c-2.233,0-3.35-1.117-3.35-3.35V241c0-2.233,1.116-3.35,3.35-3.35H493.7z"/>
		<path fill="#8BE1EB" d="M607,220.95v12.5c-10.866-5.167-22.533-5.167-35,0c-10.866,5.167-22.533,5.167-35,0v-12.5
			c12.467,5.167,24.134,5.167,35,0C584.467,215.75,596.134,215.75,607,220.95z M607,240.95v7.7l-0.2,2.2
			c-10.8-5.067-22.399-5.034-34.8,0.1c-10.8,5.133-22.383,5.167-34.75,0.1v-0.15l-0.25-2.25v-7.7c12.467,5.167,24.134,5.167,35,0
			C584.467,235.783,596.134,235.783,607,240.95z"/>
		<path fill="#FFFFFF" d="M607,220.95c-10.866-5.2-22.533-5.2-35,0c-10.866,5.167-22.533,5.167-35,0v-4
			c12.467,5.167,24.134,5.167,35,0c12.467-5.2,24.134-5.2,35,0V220.95z"/>
		<path fill="#A2E7EE" d="M537,233.45c12.467,5.167,24.134,5.167,35,0c12.467-5.167,24.134-5.167,35,0v7.5
			c-10.866-5.167-22.533-5.167-35,0c-10.866,5.167-22.533,5.167-35,0V233.45z M606.8,250.85c-0.267,1.466-0.767,2.716-1.5,3.75
			l-1.25,1.3c-1.6,1.267-3.833,1.9-6.7,1.9H546.65c-2.867,0-5.101-0.633-6.7-1.9l-1.2-1.25c-0.733-1-1.233-2.2-1.5-3.6
			c12.366,5.067,23.95,5.034,34.75-0.1C584.4,245.816,596,245.783,606.8,250.85z"/>
		<path fill="#B699C4" d="M367,277.65v1.5c-0.167-6.1-3.384-9.15-9.65-9.15H306.65c-6.267,0-9.484,3.05-9.65,9.15v-1.5
			c0-6.433,3.217-9.65,9.65-9.65h50.699C363.783,268,367,271.217,367,277.65z"/>
		<path fill="#9C73AE" d="M297,279.15c0.167-6.1,3.383-9.15,9.65-9.15h50.699c6.267,0,9.483,3.05,9.65,9.15v12.35L355.35,280
			l-11.699,11.5L332.05,280l-11.7,11.5L308.65,280L297,291.5V279.15z"/>
		<path fill="#85A3A5" d="M367,291.5v5L355.35,285l-11.699,11.5L332.05,285l-11.7,11.5L308.65,285L297,296.5v-5l11.65-11.5
			l11.699,11.5l11.7-11.5l11.601,11.5L355.35,280L367,291.5z"/>
		<path fill="#BBCBCC" d="M367,296.5v10L355.35,295l-11.699,11.5L332.05,295l-11.7,11.5L308.65,295L297,306.5v-10l11.65-11.5
			l11.699,11.5l11.7-11.5l11.601,11.5L355.35,285L367,296.5z M367,321.5v7.35c-0.066,2.467-0.634,4.45-1.7,5.95L355.4,325
			l-11.7,11.5L332.1,325L320.4,336.5L308.7,325l-9.95,9.85c-1.1-1.5-1.684-3.5-1.75-6v-7.35l10.2-10.05l1.45-1.45l11.699,11.5
			l11.7-11.5l11.601,11.5L355.35,310L367,321.5z M297,321.5h0.05H297z"/>
		<path fill="#ACC0C1" d="M367,306.5v15L355.35,310l-11.699,11.5L332.05,310l-11.7,11.5L308.65,310l-1.45,1.45l-10.15,10.05
			l-0.05-15l11.65-11.5l11.699,11.5l11.7-11.5l11.601,11.5L355.35,295L367,306.5z M297.05,321.5H297H297.05z M365.3,334.8l-1.25,1.3
			c-1.6,1.268-3.833,1.9-6.7,1.9H306.65c-2.867,0-5.101-0.633-6.7-1.9l-1.2-1.25l9.95-9.85l11.7,11.5L332.1,325l11.601,11.5
			l11.7-11.5L365.3,334.8z"/>
		<path fill="#D3AD89" d="M447,277.65v1.5c-0.167-6.1-3.384-9.15-9.65-9.15H386.65c-6.267,0-9.483,3.05-9.65,9.15v-1.5
			c0-6.433,3.217-9.65,9.65-9.65h50.699C443.783,268,447,271.217,447,277.65z"/>
		<path fill="#C58F5C" d="M377,279.15c0.167-6.1,3.384-9.15,9.65-9.15h50.699c6.267,0,9.483,3.05,9.65,9.15v49.7
			c-0.066,2.467-0.634,4.45-1.7,5.95l-1.25,1.3c-1.6,1.268-3.833,1.9-6.7,1.9H386.65c-2.867,0-5.101-0.633-6.7-1.9l-1.2-1.25
			c-1.1-1.5-1.684-3.5-1.75-6V279.15z M384.2,275.45c-0.767,0.8-1.15,1.733-1.15,2.8c0,1.1,0.384,2.033,1.15,2.8
			c0.5,0.534,1.083,0.884,1.75,1.05l1.05,0.15l1.05-0.15c0.667-0.167,1.25-0.517,1.75-1.05c0.767-0.767,1.15-1.7,1.15-2.8
			c0-1.066-0.384-2-1.15-2.8c-0.5-0.5-1.083-0.833-1.75-1L387,274.3l-1.05,0.15C385.283,274.617,384.7,274.95,384.2,275.45z
			 M384.2,325.45c-0.767,0.8-1.15,1.733-1.15,2.8c0,1.1,0.384,2.033,1.15,2.8c0.5,0.534,1.083,0.884,1.75,1.05l1.05,0.15l1.05-0.15
			c0.667-0.166,1.25-0.516,1.75-1.05c0.767-0.767,1.15-1.7,1.15-2.8c0-1.066-0.384-2-1.15-2.8c-0.5-0.5-1.083-0.833-1.75-1
			L387,324.3l-1.05,0.15C385.283,324.617,384.7,324.95,384.2,325.45z M440.95,278.25c0-1.066-0.384-2-1.15-2.8
			c-0.5-0.5-1.083-0.833-1.75-1L437,274.3l-1.05,0.15c-0.667,0.167-1.25,0.5-1.75,1c-0.767,0.8-1.15,1.733-1.15,2.8
			c0,1.1,0.384,2.033,1.15,2.8c0.5,0.534,1.083,0.884,1.75,1.05l1.05,0.15l1.05-0.15c0.667-0.167,1.25-0.517,1.75-1.05
			C440.566,280.283,440.95,279.35,440.95,278.25z M418.65,289.55v-0.45c0.133-1.733-0.434-3.267-1.7-4.6c-1.3-1.333-2.934-2-4.9-2
			c-2,0-3.666,0.667-5,2c-1.233,1.333-1.783,2.867-1.649,4.6l0.05,0.45c-0.066,0.4-0.084,0.833-0.05,1.3l1.5,19.15
			c0.066,1,0.6,1.834,1.6,2.5s2.167,1,3.5,1c1.366,0,2.533-0.334,3.5-1c1.033-0.666,1.6-1.5,1.7-2.5l1.45-19.15V289.55z
			 M412.05,282.5H412H412.05z M412,313.5h0.05H412z M434.2,325.45c-0.767,0.8-1.15,1.733-1.15,2.8c0,1.1,0.384,2.033,1.15,2.8
			c0.5,0.534,1.083,0.884,1.75,1.05l1.05,0.15l1.05-0.15c0.667-0.166,1.25-0.516,1.75-1.05c0.767-0.767,1.15-1.7,1.15-2.8
			c0-1.066-0.384-2-1.15-2.8c-0.5-0.5-1.083-0.833-1.75-1L437,324.3l-1.05,0.15C435.283,324.617,434.7,324.95,434.2,325.45z
			 M407.15,319.15l0.1,0.899l-0.1,0.851c0,1.333,0.466,2.467,1.399,3.399c0.967,0.967,2.134,1.45,3.5,1.45
			c1.334,0,2.467-0.483,3.4-1.45c0.967-0.933,1.45-2.066,1.45-3.399l-0.051-0.851l0.051-0.899c0-1.367-0.483-2.533-1.45-3.5
			c-0.934-0.934-2.066-1.4-3.4-1.4c-1.366,0-2.533,0.467-3.5,1.4C407.616,316.617,407.15,317.783,407.15,319.15z"/>
		<path fill="#BB8044" d="M383.05,278.25c0-1.066,0.384-2,1.15-2.8c0.5-0.5,1.083-0.833,1.75-1l1.05-0.15l1.05,0.15
			c0.667,0.167,1.25,0.5,1.75,1c0.767,0.8,1.15,1.733,1.15,2.8c0,1.1-0.384,2.033-1.15,2.8c-0.5,0.534-1.083,0.884-1.75,1.05
			l-1.05,0.15l-1.05-0.15c-0.667-0.167-1.25-0.517-1.75-1.05C383.434,280.283,383.05,279.35,383.05,278.25z M383.05,328.25
			c0-1.066,0.384-2,1.15-2.8c0.5-0.5,1.083-0.833,1.75-1l1.05-0.15l1.05,0.15c0.667,0.167,1.25,0.5,1.75,1
			c0.767,0.8,1.15,1.733,1.15,2.8c0,1.1-0.384,2.033-1.15,2.8c-0.5,0.534-1.083,0.884-1.75,1.05l-1.05,0.15l-1.05-0.15
			c-0.667-0.166-1.25-0.516-1.75-1.05C383.434,330.283,383.05,329.35,383.05,328.25z M439.8,275.45c0.767,0.8,1.15,1.733,1.15,2.8
			c0,1.1-0.384,2.033-1.15,2.8c-0.5,0.534-1.083,0.884-1.75,1.05l-1.05,0.15l-1.05-0.15c-0.667-0.167-1.25-0.517-1.75-1.05
			c-0.767-0.767-1.15-1.7-1.15-2.8c0-1.066,0.384-2,1.15-2.8c0.5-0.5,1.083-0.833,1.75-1l1.05-0.15l1.05,0.15
			C438.717,274.617,439.3,274.95,439.8,275.45z M418.65,289.1v0.45c-0.2-1.2-0.767-2.3-1.7-3.3c-1.3-1.333-2.934-2-4.9-2
			c-2,0-3.666,0.667-5,2c-0.899,1-1.434,2.1-1.6,3.3l-0.05-0.45c-0.134-1.733,0.416-3.267,1.649-4.6c1.334-1.333,2.983-2,4.95-2
			c2,0,3.65,0.667,4.95,2C418.217,285.833,418.783,287.367,418.65,289.1z M412,282.5h0.05H412z M412.05,284.25H412H412.05z
			 M433.05,328.25c0-1.066,0.384-2,1.15-2.8c0.5-0.5,1.083-0.833,1.75-1l1.05-0.15l1.05,0.15c0.667,0.167,1.25,0.5,1.75,1
			c0.767,0.8,1.15,1.733,1.15,2.8c0,1.1-0.384,2.033-1.15,2.8c-0.5,0.534-1.083,0.884-1.75,1.05l-1.05,0.15l-1.05-0.15
			c-0.667-0.166-1.25-0.516-1.75-1.05C433.434,330.283,433.05,329.35,433.05,328.25z M407.25,320.05l-0.1-0.899
			c0-1.367,0.466-2.533,1.399-3.5c0.967-0.934,2.134-1.4,3.5-1.4c1.334,0,2.467,0.467,3.4,1.4c0.967,0.967,1.45,2.133,1.45,3.5
			l-0.051,0.899c-0.166-1-0.633-1.884-1.399-2.649c-0.934-0.934-2.066-1.4-3.4-1.4c-1.366,0-2.533,0.467-3.5,1.4
			C407.816,318.166,407.384,319.05,407.25,320.05z"/>
		<path fill="#CFA67C" d="M405.45,289.55c0.166-1.2,0.7-2.3,1.6-3.3c1.334-1.333,2.983-2,4.95-2c2,0,3.65,0.667,4.95,2
			c0.934,1,1.5,2.1,1.7,3.3v1.3L417.2,310c-0.101,1-0.667,1.834-1.7,2.5c-0.967,0.666-2.116,1-3.45,1c-1.366,0-2.55-0.334-3.55-1
			s-1.533-1.5-1.6-2.5l-1.5-19.15C405.366,290.383,405.384,289.95,405.45,289.55z M412,284.25h0.05H412z M412.05,313.5H412H412.05z
			 M416.85,320.05l0.051,0.851c0,1.333-0.483,2.467-1.45,3.399c-0.934,0.967-2.066,1.45-3.4,1.45c-1.366,0-2.533-0.483-3.5-1.45
			c-0.934-0.933-1.399-2.066-1.399-3.399l0.1-0.851c0.134-1,0.566-1.884,1.3-2.649c0.967-0.934,2.134-1.4,3.5-1.4
			c1.334,0,2.467,0.467,3.4,1.4C416.217,318.166,416.684,319.05,416.85,320.05z"/>
		<path fill="#93DB24" d="M723,179.7v1.5c-0.134-6.333-2.467-11.75-7-16.25l-0.15-0.15c-4.699-4.533-10.3-6.8-16.8-6.8
			c-6.633,0-12.3,2.316-17,6.95c-3.3,3.267-5.45,7-6.45,11.2c-0.366,1.6-0.566,3.284-0.6,5.05v-1.5c0-1.167,0.083-2.317,0.25-3.45
			c0.7-5.066,2.967-9.5,6.8-13.3c4.7-4.634,10.351-6.95,16.95-6.95c6.634,0,12.3,2.316,17,6.95l1.3,1.4
			C721.1,168.684,723,173.8,723,179.7z M699,156h0.05H699z M699.05,158H699H699.05z"/>
		<path fill="#7AB71E" d="M675,181.2c0.033-1.767,0.233-3.45,0.6-5.05l40.25-11.35l0.15,0.15c4.533,4.5,6.866,9.917,7,16.25v1.55
			l-48,13.6V181.2z M723,202.75v20l-48,13.6v-20L723,202.75z M723,242.75V258h-48v-1.65L723,242.75z"/>
		<path fill="#80BE1F" d="M675.6,176.15c1-4.2,3.15-7.933,6.45-11.2c4.7-4.634,10.351-6.95,16.95-6.95
			c6.533,0,12.15,2.267,16.85,6.8L675.6,176.15z M699,158h0.05H699z M723,182.75v20l-48,13.6v-20L723,182.75z M723,222.75v20
			l-48,13.6v-20L723,222.75z"/>
		<path fill="#496D12" d="M712.85,190.45c0,1.333-0.5,2.466-1.5,3.4c-0.966,1-2.116,1.5-3.449,1.5c-1.4,0-2.601-0.5-3.601-1.5
			c-0.933-0.934-1.399-2.067-1.399-3.4c0-1.333,0.467-2.5,1.399-3.5c1-0.967,2.2-1.45,3.601-1.45c1.333,0,2.482,0.483,3.449,1.45
			C712.35,187.95,712.85,189.117,712.85,190.45z M704.6,197.6c0.267-0.133,0.533-0.133,0.801,0l0.6,0.5v0.8
			c-0.4,0.9-1.05,1.717-1.95,2.45c-1.399,1.1-3.083,1.65-5.05,1.65c-2,0-3.7-0.55-5.1-1.65c-1-0.733-1.634-1.583-1.9-2.55
			c-0.066-0.267-0.033-0.517,0.1-0.75c0.101-0.267,0.284-0.433,0.551-0.5l0.85,0.1l0.45,0.55c0.2,0.6,0.6,1.133,1.2,1.6
			c1.033,0.8,2.316,1.2,3.85,1.2c1.467,0,2.733-0.4,3.8-1.2c0.601-0.5,1.033-1.05,1.3-1.65
			C704.167,197.883,704.333,197.7,704.6,197.6z M695.15,190.45c0,1.333-0.5,2.466-1.5,3.4c-0.967,1-2.117,1.5-3.45,1.5
			c-1.4,0-2.601-0.5-3.601-1.5c-0.933-0.934-1.399-2.067-1.399-3.4c0-1.333,0.467-2.5,1.399-3.5c1-0.967,2.2-1.45,3.601-1.45
			c1.333,0,2.483,0.483,3.45,1.45C694.65,187.95,695.15,189.117,695.15,190.45z"/>
		<path fill="#80BE1F" d="M618.65,132.15c0.966-4.2,3.1-7.933,6.399-11.2c4.7-4.634,10.351-6.95,16.95-6.95
			c6.533,0,12.15,2.267,16.85,6.8L618.65,132.15z M642,114h0.05H642z M666,138.75v20l-48,13.6v-20L666,138.75z M666,178.75v20
			l-48,13.6v-20L666,178.75z M666,218.75v20l-48,13.6v-20L666,218.75z"/>
		<path fill="#93DB24" d="M625.05,120.95c-3.3,3.267-5.433,7-6.399,11.2c-0.4,1.6-0.617,3.284-0.65,5.05v-1.5
			c0-1.167,0.083-2.317,0.25-3.45c0.7-5.066,2.967-9.5,6.8-13.3c4.7-4.634,10.351-6.95,16.95-6.95c6.634,0,12.3,2.316,17,6.95
			l1.3,1.4c3.8,4.333,5.7,9.45,5.7,15.35v1.5c-0.134-6.333-2.467-11.75-7-16.25l-0.15-0.15c-4.699-4.533-10.3-6.8-16.8-6.8
			C635.417,114,629.75,116.316,625.05,120.95z M642.05,114H642H642.05z M642,112h0.05H642z"/>
		<path fill="#7AB71E" d="M658.85,120.8l0.15,0.15c4.533,4.5,6.866,9.917,7,16.25v1.55l-48,13.6V137.2
			c0.033-1.767,0.25-3.45,0.65-5.05L658.85,120.8z M666,158.75v20l-48,13.6v-20L666,158.75z M666,198.75v20l-48,13.6v-20L666,198.75
			z M666,238.75V258h-48v-5.65L666,238.75z"/>
		<path fill="#496D12" d="M655.85,146.45c0,1.333-0.5,2.466-1.5,3.4c-0.966,1-2.116,1.5-3.449,1.5c-1.4,0-2.601-0.5-3.601-1.5
			c-0.933-0.934-1.399-2.067-1.399-3.4c0-1.333,0.467-2.5,1.399-3.5c1-0.967,2.2-1.45,3.601-1.45c1.333,0,2.482,0.483,3.449,1.45
			C655.35,143.95,655.85,145.117,655.85,146.45z M648.4,153.6l0.6,0.5v0.8c-0.4,0.9-1.05,1.717-1.95,2.45
			c-1.399,1.1-3.083,1.65-5.05,1.65c-2,0-3.7-0.55-5.1-1.65c-1-0.733-1.634-1.583-1.9-2.55c-0.066-0.267-0.033-0.517,0.1-0.75
			c0.101-0.267,0.284-0.433,0.551-0.5l0.85,0.1l0.45,0.55c0.2,0.6,0.6,1.133,1.2,1.6c1.033,0.8,2.316,1.2,3.85,1.2
			c1.467,0,2.733-0.4,3.8-1.2c0.601-0.5,1.033-1.05,1.3-1.65c0.067-0.267,0.233-0.45,0.5-0.55
			C647.866,153.467,648.133,153.467,648.4,153.6z M638.15,146.45c0,1.333-0.5,2.466-1.5,3.4c-0.967,1-2.117,1.5-3.45,1.5
			c-1.4,0-2.601-0.5-3.601-1.5c-0.933-0.934-1.399-2.067-1.399-3.4c0-1.333,0.467-2.5,1.399-3.5c1-0.967,2.2-1.45,3.601-1.45
			c1.333,0,2.483,0.483,3.45,1.45C637.65,143.95,638.15,145.117,638.15,146.45z"/>
		<path fill="#C99869" d="M514.8,339v-17.65v-12.1v-5.55v-12.1v-7.45c0-1.7,0.583-3.15,1.75-4.35c1.2-1.2,2.65-1.8,4.351-1.8
			c1.699,0,3.133,0.6,4.3,1.8c1.2,1.2,1.8,2.65,1.8,4.35V339H514.8z M469.2,321.35V339H457v-54.85c0-1.7,0.583-3.15,1.75-4.35
			c1.2-1.2,2.65-1.8,4.35-1.8c1.7,0,3.134,0.6,4.301,1.8c1.199,1.2,1.8,2.65,1.8,4.35v7.45v12.1v5.55V321.35z"/>
		<path fill="#B98046" d="M514.8,291.6v12.1h-2.5v-12.1H514.8z M514.8,309.25v12.1h-2.5v-12.1H514.8z M471.7,321.35h-2.5v-12.1h2.5
			V321.35z M469.2,291.6h2.5v12.1h-2.5V291.6z"/>
		<path fill="#C18C57" d="M512.3,321.35h-40.6v-12.1h40.6V321.35z M471.7,291.6h40.6v12.1h-40.6V291.6z"/>
		<path fill="#B98046" d="M592.3,291.6h2.5v12.1h-2.5V291.6z M551.7,303.7h-2.5v-12.1h2.5V303.7z M551.7,310.7v14l-8.55-4.95
			l6.05-10.5L551.7,310.7z"/>
		<path fill="#C99869" d="M594.8,291.6v-7.45c0-1.7,0.583-3.15,1.75-4.35c1.2-1.2,2.65-1.8,4.351-1.8c1.699,0,3.133,0.6,4.3,1.8
			c1.2,1.2,1.8,2.65,1.8,4.35V339h-12.2v-35.3V291.6z"/>
		<path fill="#C18C57" d="M592.3,303.7h-40.6v-12.1h40.6V303.7z M551.7,324.7v-14l16.55,9.55l1.95,4.6l-5,0.65l1.95,4.6l-4.95,0.65
			L551.7,324.7z"/>
		<path fill="#C99869" d="M538.75,279.8c1.2-1.2,2.65-1.8,4.35-1.8c1.7,0,3.134,0.6,4.301,1.8c1.199,1.2,1.8,2.65,1.8,4.35V339H537
			v-54.85C537,282.45,537.583,281,538.75,279.8z"/>
		<path fill="#C59565" d="M314.15,357.5l2.5,2.5l42.8,42.8l-0.05,0.2l-0.4,1.85l-1.2,2.45l-1.25,1.3c-1.6,1.267-3.833,1.9-6.7,1.9
			h-1.5l-43.85-43.85c0-0.533,0.05-1.051,0.15-1.551c0.067-0.8,0.217-1.516,0.45-2.149C306.3,359.316,309.316,357.5,314.15,357.5z"
			/>
		<path fill="#946538" d="M316.65,360l-2.5-2.5h35.699c5.733,0,8.917,2.55,9.551,7.65l0.1,1.5v2.3l-0.1-1.3
			c-0.634-5.101-3.817-7.65-9.551-7.65H316.65z M304.5,366.65l43.85,43.85h-2.5l-41.35-41.35V366.65z"/>
		<path fill="#A06D3D" d="M316.65,360h33.199c5.733,0,8.917,2.55,9.551,7.65l0.1,1.3V402l-0.05,0.8L316.65,360z M304.5,401.35
			V369.15l41.35,41.35H314.15c-2.867,0-5.101-0.634-6.7-1.9l-1.2-1.25C305.15,405.85,304.566,403.85,304.5,401.35z"/>
		<path fill="#AE7640" d="M359.5,368.95v-2.3l-0.1-1.5c-0.634-5.101-3.817-7.65-9.551-7.65H314.15c-4.834,0-7.851,1.816-9.05,5.45
			c-0.233,0.634-0.383,1.35-0.45,2.149c-0.1,0.5-0.15,1.018-0.15,1.551v2.5v32.199c0.067,2.5,0.65,4.5,1.75,6l1.2,1.25
			c1.6,1.267,3.833,1.9,6.7,1.9h31.699h2.5h1.5c2.867,0,5.101-0.634,6.7-1.9l1.25-1.3l1.2-2.45l0.4-1.85l0.05-0.2l0.05-0.8V368.95z
			 M297,359.15c0-0.533,0.05-1.051,0.15-1.551c0.067-0.8,0.217-1.516,0.45-2.149c1.2-3.634,4.216-5.45,9.05-5.45h50.699
			c5.733,0,8.917,2.55,9.551,7.65l0.1,1.5v49.699v0.65l-0.05,0.8l-0.05,0.2c-0.233,1.7-0.767,3.133-1.601,4.3l-1.25,1.3
			c-1.6,1.267-3.833,1.9-6.7,1.9H306.65c-2.867,0-5.101-0.634-6.7-1.9l-1.2-1.25c-1.1-1.5-1.684-3.5-1.75-6V359.15z"/>
		<path fill="#BB844D" d="M297.15,357.6c-0.1,0.5-0.15,1.018-0.15,1.551v-1.5v-0.25c0-0.7,0.05-1.351,0.15-1.95l0.1-0.45l0.05-0.45
			l0.05-0.1c0.933-4.3,4.033-6.45,9.3-6.45h50.699c6.434,0,9.65,3.217,9.65,9.65v1.5l-0.1-1.5c-0.634-5.101-3.817-7.65-9.551-7.65
			H306.65c-4.834,0-7.851,1.816-9.05,5.45C297.367,356.084,297.217,356.8,297.15,357.6z"/>
		<path fill="#E3B602" d="M409.4,379.55v7.9c0,0.566,0.199,1.05,0.6,1.45c0.434,0.434,0.934,0.649,1.5,0.649
			c0.6,0,1.1-0.216,1.5-0.649c0.434-0.4,0.65-0.884,0.65-1.45v-7.9c0-0.566-0.217-1.066-0.65-1.5c-0.4-0.399-0.884-0.6-1.45-0.6
			c-0.6,0-1.116,0.2-1.55,0.6C409.6,378.483,409.4,378.983,409.4,379.55z M411.5,389.55h0.05H411.5z M411.55,377.45h-0.05H411.55z
			 M401.05,384.3c0.267-2.399,1.267-4.466,3-6.2c2.033-2.066,4.517-3.1,7.45-3.1c2.9,0,5.366,1.033,7.4,3.1
			c1.833,1.834,2.866,4,3.1,6.5c-0.267,2.434-1.3,4.551-3.1,6.351c-2.034,2.033-4.5,3.05-7.4,3.05c-2.934,0-5.417-1.017-7.45-3.05
			C402.184,389.084,401.184,386.867,401.05,384.3z"/>
		<path fill="#FFCC00" d="M409.4,387.45v-7.9c0-0.566,0.199-1.066,0.6-1.5c0.434-0.399,0.934-0.6,1.5-0.6c0.6,0,1.1,0.2,1.5,0.6
			c0.434,0.434,0.65,0.934,0.65,1.5v7.9c0,0.566-0.217,1.05-0.65,1.45c-0.4,0.434-0.884,0.649-1.45,0.649
			c-0.6,0-1.116-0.216-1.55-0.649C409.6,388.5,409.4,388.017,409.4,387.45z M411.55,389.55h-0.05H411.55z M411.5,377.45h0.05H411.5z
			 M422,384.6v-0.5v-0.6c0-2.9-1.033-5.367-3.1-7.4c-2.034-2.066-4.5-3.1-7.4-3.1c-2.934,0-5.417,1.033-7.45,3.1
			c-2.033,2.033-3.05,4.5-3.05,7.4l0.05,0.6v0.2c0.134,2.567,1.134,4.784,3,6.65c2.033,2.033,4.517,3.05,7.45,3.05
			c2.9,0,5.366-1.017,7.4-3.05C420.7,389.15,421.733,387.033,422,384.6z M429,384.5c-0.233,4.4-1.95,8.2-5.15,11.4
			c-3.399,3.399-7.517,5.1-12.35,5.1c-4.866,0-9-1.7-12.4-5.1c-2.933-2.967-4.6-6.434-5-10.4l-0.05-1l0.05-0.95
			c0.4-4,2.067-7.466,5-10.399c3.4-3.434,7.534-5.15,12.4-5.15c4.833,0,8.95,1.717,12.35,5.15
			C427.05,376.316,428.767,380.1,429,384.5z"/>
		<path fill="#CAA202" d="M404.05,378.1c-1.733,1.734-2.733,3.801-3,6.2v-0.2l-0.05-0.6c0-2.9,1.017-5.367,3.05-7.4
			c2.033-2.066,4.517-3.1,7.45-3.1c2.9,0,5.366,1.033,7.4,3.1c2.066,2.033,3.1,4.5,3.1,7.4v0.6v0.5c-0.233-2.5-1.267-4.666-3.1-6.5
			c-2.034-2.066-4.5-3.1-7.4-3.1C408.566,375,406.083,376.033,404.05,378.1z"/>
		<path fill="#FEE481" d="M394.05,384.5l-0.05-1l0.1-2c0.4-3.967,2.067-7.416,5-10.35c3.4-3.434,7.534-5.15,12.4-5.15
			c4.833,0,8.95,1.717,12.35,5.15c3.434,3.399,5.15,7.516,5.15,12.35v1c-0.233-4.4-1.95-8.184-5.15-11.35
			c-3.399-3.434-7.517-5.15-12.35-5.15c-4.866,0-9,1.717-12.4,5.15c-2.933,2.934-4.6,6.399-5,10.399L394.05,384.5z"/>
		<path fill="#8DD323" d="M526.95,417.85v0.051h-0.2c-0.467-2.7-1.7-5.084-3.7-7.15c-2.6-2.634-5.733-3.95-9.399-3.95l-2.851,0.3
			c-0.967-2.533-2.467-4.833-4.5-6.899c-3.767-3.867-8.333-5.8-13.7-5.8c-5.333,0-9.899,1.933-13.699,5.8
			c-0.934,0.967-1.767,1.983-2.5,3.05l-4.15-0.55c-4.2,0-7.8,1.517-10.8,4.55c-2.7,2.767-4.184,6.017-4.45,9.75l-0.05-1.2
			c0-4.3,1.5-7.983,4.5-11.05c3-3.033,6.6-4.55,10.8-4.55l4.15,0.55c0.733-1.066,1.566-2.083,2.5-3.05
			c3.8-3.866,8.366-5.8,13.699-5.8c5.367,0,9.934,1.934,13.7,5.8c2.033,2.066,3.533,4.366,4.5,6.899l2.851-0.3
			c3.666,0,6.8,1.316,9.399,3.95C525.65,410.917,526.95,414.116,526.95,417.85z"/>
		<path fill="#7AB71E" d="M457,417c0.267-3.733,1.75-6.983,4.45-9.75c3-3.033,6.6-4.55,10.8-4.55l4.15,0.55
			c0.733-1.066,1.566-2.083,2.5-3.05c3.8-3.867,8.366-5.8,13.699-5.8c5.367,0,9.934,1.933,13.7,5.8
			c2.033,2.066,3.533,4.366,4.5,6.899l2.851-0.3c3.666,0,6.8,1.316,9.399,3.95c2,2.066,3.233,4.45,3.7,7.15H457.1L457,417z"/>
		<path fill="#80BE1F" d="M578.95,403.9c2.866-2.467,6.8-3.517,11.8-3.15c-4.1,4.3-6.65,10.017-7.65,17.15H562.7
			c-1.667-6.567-3.934-12.034-6.8-16.4c5.033,0.934,8.35,3.15,9.949,6.65c4.101-10.7,4.483-20.734,1.15-30.101
			C574.6,385.617,578.583,394.233,578.95,403.9z"/>
		<path fill="#ACC0C1" d="M640.3,339H628.65v-35L640.3,339z M652,304l11.65,35H652V304z M675.3,304l11.7,35h-11.7V304z"/>
		<path fill="#BBCBCC" d="M628.65,339H617l11.65-35V339z M640.3,339l11.7-35v35H640.3z M663.65,339l11.649-35v35H663.65z"/>
		<path fill="#A06D3D" d="M646.4,402.1l-7.7-1.1c-3.3-0.733-5.167-1.616-5.601-2.65c0.434-3.266,2.301-6.1,5.601-8.5
			c3.833-2.732,8.433-4.1,13.8-4.1c5.4,0,10,1.367,13.8,4.1c3.3,2.4,5.167,5.234,5.601,8.5c-0.434,1.034-2.301,1.917-5.601,2.65
			l-7.7,1.1l-6.1,0.2L646.4,402.1z"/>
		<path fill="#BD8853" d="M633,397.85v-0.05c0.1-3.767,2-7,5.7-9.7c3.833-2.732,8.433-4.1,13.8-4.1c5.4,0,10,1.367,13.8,4.1
			c3.7,2.7,5.601,5.934,5.7,9.7l-0.1,0.55c-0.434-3.266-2.301-6.1-5.601-8.5c-3.8-2.732-8.399-4.1-13.8-4.1
			c-5.366,0-9.967,1.367-13.8,4.1c-3.3,2.4-5.167,5.234-5.601,8.5L633,397.85z M672,397.8v0.05V397.8z"/>
		<path fill="#E1D7BF" d="M658.6,402.1v1.75l-6.1,0.2l-6.1-0.2v-1.75l6.1,0.2L658.6,402.1z"/>
		<path fill="#EFEBDC" d="M658.6,403.85V418H646.4v-14.15l6.1,0.2L658.6,403.85z"/>
		<path fill="#6FC4A9" d="M343.9,152.9c1.866-0.033,3.449,0.667,4.75,2.1c1.267,1.333,1.883,2.9,1.85,4.7V178h-8.35l-3.551-18.3
			c-0.3-1.8,0.017-3.367,0.95-4.7C340.65,153.566,342.1,152.867,343.9,152.9z M315.35,155c1.301-1.434,2.884-2.133,4.75-2.1
			c1.801-0.033,3.25,0.667,4.351,2.1c0.934,1.333,1.25,2.9,0.95,4.7L321.85,178h-8.35v-18.3
			C313.467,157.9,314.083,156.333,315.35,155z"/>
		<path fill="#6FC4A9" d="M332,94.3c5.934,0,11,2.1,15.2,6.3c4.2,4.2,6.3,9.267,6.3,15.2v40.4c0,3.633-2.1,6.733-6.3,9.3
			c-4.2,2.533-9.267,3.8-15.2,3.8s-11-1.267-15.2-3.8c-4.2-2.566-6.3-5.667-6.3-9.3v-40.4c0-5.933,2.1-11,6.3-15.2
			C321,96.4,326.066,94.3,332,94.3z"/>
		<path fill="#347E67" d="M340.9,122.3c1.333,0,2.483,0.483,3.449,1.45c1,1,1.5,2.167,1.5,3.5s-0.5,2.467-1.5,3.4
			c-0.966,1-2.116,1.5-3.449,1.5c-1.4,0-2.601-0.5-3.601-1.5c-0.934-0.933-1.399-2.066-1.399-3.4s0.466-2.5,1.399-3.5
			C338.3,122.783,339.5,122.3,340.9,122.3z M328.15,127.25c0,1.333-0.5,2.467-1.5,3.4c-0.967,1-2.117,1.5-3.45,1.5
			c-1.4,0-2.601-0.5-3.601-1.5c-0.933-0.933-1.399-2.066-1.399-3.4s0.467-2.5,1.399-3.5c1-0.967,2.2-1.45,3.601-1.45
			c1.333,0,2.483,0.483,3.45,1.45C327.65,124.75,328.15,125.917,328.15,127.25z M337.1,134.95c0.067-0.267,0.233-0.45,0.5-0.55
			c0.267-0.133,0.534-0.133,0.801,0l0.6,0.5v0.8c-0.4,0.9-1.05,1.716-1.95,2.45c-1.399,1.1-3.083,1.65-5.05,1.65
			c-2,0-3.7-0.55-5.1-1.65c-1-0.733-1.634-1.583-1.9-2.55c-0.066-0.267-0.033-0.517,0.1-0.75c0.101-0.267,0.284-0.434,0.551-0.5
			l0.85,0.1l0.45,0.55c0.2,0.6,0.6,1.133,1.2,1.6c1.033,0.8,2.316,1.2,3.85,1.2c1.467,0,2.733-0.4,3.8-1.2
			C336.4,136.1,336.833,135.55,337.1,134.95z"/>
		<path fill="#6FC4A9" d="M351.6,148.1v-9.2l0.301,0.1c7.899,3.1,11.75,8.833,11.55,17.2c-0.033,0.7-0.283,1.283-0.75,1.75
			c-0.5,0.466-1.101,0.7-1.8,0.7c-0.7,0-1.284-0.25-1.75-0.75c-0.467-0.5-0.7-1.1-0.7-1.8
			C358.55,150.633,356.267,147.967,351.6,148.1z M312.4,138.9v9.2c-4.667-0.133-6.95,2.533-6.851,8c0,0.7-0.233,1.3-0.7,1.8
			c-0.467,0.5-1.05,0.75-1.75,0.75c-0.7,0-1.3-0.233-1.8-0.7c-0.466-0.467-0.716-1.05-0.75-1.75c-0.2-8.367,3.65-14.1,11.55-17.2
			L312.4,138.9z"/>
		<path opacity="0.302" fill="#FFFFFF" enable-background="new    " d="M343.45,98.95c2.6,0,4.816,0.933,6.649,2.8
			c1.834,1.833,2.75,4.05,2.75,6.65s-0.916,4.817-2.75,6.65c-1.833,1.833-4.05,2.75-6.649,2.75c-2.601,0-4.816-0.917-6.65-2.75
			c-1.866-1.833-2.8-4.05-2.8-6.65s0.934-4.816,2.8-6.65C338.634,99.883,340.85,98.95,343.45,98.95z"/>
		<path opacity="0.2" fill="#FFFFFF" enable-background="new    " d="M350.1,101.75c-1.833-1.867-4.05-2.8-6.649-2.8
			c-2.601,0-4.816,0.933-6.65,2.8c-1.866,1.833-2.8,4.05-2.8,6.65s0.934,4.817,2.8,6.65c1.834,1.833,4.05,2.75,6.65,2.75
			c2.6,0,4.816-0.917,6.649-2.75c1.834-1.833,2.75-4.05,2.75-6.65S351.934,103.583,350.1,101.75z M351.55,138.3
			c-5.434,5.367-11.95,8.05-19.55,8.05s-14.083-2.684-19.45-8.05c-5.434-5.4-8.15-11.917-8.15-19.55c0-7.6,2.716-14.083,8.15-19.45
			c5.367-5.4,11.851-8.1,19.45-8.1s14.116,2.7,19.55,8.1c5.367,5.367,8.05,11.85,8.05,19.45
			C359.6,126.383,356.917,132.9,351.55,138.3z"/>
		<path fill="#FFFFFF" d="M332,146.35c7.6,0,14.116-2.684,19.55-8.05c5.367-5.4,8.05-11.917,8.05-19.55
			c0-7.6-2.683-14.083-8.05-19.45c-5.434-5.4-11.95-8.1-19.55-8.1s-14.083,2.7-19.45,8.1c-5.434,5.367-8.15,11.85-8.15,19.45
			c0,7.633,2.716,14.15,8.15,19.55C317.917,143.667,324.4,146.35,332,146.35z M355.1,95.75c6.334,6.333,9.5,14,9.5,23
			c0,9.033-3.166,16.733-9.5,23.1c-6.399,6.333-14.1,9.5-23.1,9.5s-16.667-3.167-23-9.5c-6.4-6.367-9.6-14.067-9.6-23.1
			c0-9,3.2-16.667,9.6-23c6.333-6.367,14-9.55,23-9.55S348.7,89.383,355.1,95.75z"/>
		<path fill="#6FC4A9" d="M423.9,152.9c1.866-0.033,3.383,0.667,4.55,2.1c1.2,1.333,1.7,2.9,1.5,4.7L428.6,178h-8.35l-2.2-18.3
			c-0.133-1.8,0.3-3.367,1.3-4.7C420.583,153.566,422.1,152.867,423.9,152.9z M394.95,155c1.533-1.434,3.25-2.133,5.149-2.1
			c1.767-0.033,3.084,0.667,3.95,2.1c0.667,1.333,0.684,2.9,0.05,4.7l-7.05,18.3h-8.35l3.5-18.3
			C392.5,157.9,393.417,156.333,394.95,155z"/>
		<path fill="#6FC4A9" d="M412,94.3c5.934,0,11,2.1,15.2,6.3c4.2,4.2,6.3,9.267,6.3,15.2v40.4c0,3.633-2.1,6.733-6.3,9.3
			c-4.2,2.533-9.267,3.8-15.2,3.8s-11-1.267-15.2-3.8c-4.2-2.566-6.3-5.667-6.3-9.3v-40.4c0-5.933,2.1-11,6.3-15.2
			C401,96.4,406.066,94.3,412,94.3z"/>
		<path fill="#347E67" d="M413.15,127.25c0,1.333-0.5,2.467-1.5,3.4c-0.967,1-2.117,1.5-3.45,1.5c-1.4,0-2.601-0.5-3.601-1.5
			c-0.933-0.933-1.399-2.066-1.399-3.4s0.467-2.5,1.399-3.5c1-0.967,2.2-1.45,3.601-1.45c1.333,0,2.483,0.483,3.45,1.45
			C412.65,124.75,413.15,125.917,413.15,127.25z M422.3,123.75c1-0.967,2.2-1.45,3.601-1.45c1.333,0,2.483,0.483,3.449,1.45
			c1,1,1.5,2.167,1.5,3.5s-0.5,2.467-1.5,3.4c-0.966,1-2.116,1.5-3.449,1.5c-1.4,0-2.601-0.5-3.601-1.5
			c-0.934-0.933-1.399-2.066-1.399-3.4S421.366,124.75,422.3,123.75z M422.1,134.95c0.067-0.267,0.233-0.45,0.5-0.55
			c0.267-0.133,0.534-0.133,0.801,0l0.6,0.5v0.8c-0.4,0.9-1.05,1.716-1.95,2.45c-1.399,1.1-3.083,1.65-5.05,1.65
			c-2,0-3.7-0.55-5.1-1.65c-1-0.733-1.634-1.583-1.9-2.55c-0.066-0.267-0.033-0.517,0.1-0.75c0.101-0.267,0.284-0.434,0.551-0.5
			l0.85,0.1l0.45,0.55c0.2,0.6,0.6,1.133,1.2,1.6c1.033,0.8,2.316,1.2,3.85,1.2c1.467,0,2.733-0.4,3.8-1.2L422.1,134.95z"/>
		<path fill="#6FC4A9" d="M428.9,139c7.899,3.1,11.75,8.833,11.55,17.2c-0.033,0.7-0.283,1.283-0.75,1.75
			c-0.5,0.466-1.101,0.7-1.8,0.7c-0.7,0-1.284-0.25-1.75-0.75c-0.467-0.5-0.7-1.1-0.7-1.8c0.1-5.467-2.184-8.133-6.851-8v-9.2
			L428.9,139z M392.4,138.9v9.2c-4.667-0.133-6.95,2.533-6.851,8c0,0.7-0.233,1.3-0.7,1.8c-0.466,0.5-1.05,0.75-1.75,0.75
			c-0.699,0-1.3-0.233-1.8-0.7c-0.467-0.467-0.717-1.05-0.75-1.75c-0.2-8.367,3.65-14.1,11.55-17.2L392.4,138.9z"/>
		<path opacity="0.302" fill="#FFFFFF" enable-background="new    " d="M423.45,98.95c2.6,0,4.816,0.933,6.649,2.8
			c1.834,1.833,2.75,4.05,2.75,6.65s-0.916,4.817-2.75,6.65c-1.833,1.833-4.05,2.75-6.649,2.75c-2.601,0-4.816-0.917-6.65-2.75
			c-1.866-1.833-2.8-4.05-2.8-6.65s0.934-4.816,2.8-6.65C418.634,99.883,420.85,98.95,423.45,98.95z"/>
		<path opacity="0.2" fill="#FFFFFF" enable-background="new    " d="M430.1,101.75c-1.833-1.867-4.05-2.8-6.649-2.8
			c-2.601,0-4.816,0.933-6.65,2.8c-1.866,1.833-2.8,4.05-2.8,6.65s0.934,4.817,2.8,6.65c1.834,1.833,4.05,2.75,6.65,2.75
			c2.6,0,4.816-0.917,6.649-2.75c1.834-1.833,2.75-4.05,2.75-6.65S431.934,103.583,430.1,101.75z M431.55,138.3
			c-5.434,5.367-11.95,8.05-19.55,8.05s-14.083-2.684-19.45-8.05c-5.434-5.4-8.149-11.917-8.149-19.55
			c0-7.6,2.716-14.083,8.149-19.45c5.367-5.4,11.851-8.1,19.45-8.1s14.116,2.7,19.55,8.1c5.367,5.367,8.05,11.85,8.05,19.45
			C439.6,126.383,436.917,132.9,431.55,138.3z"/>
		<path fill="#FFFFFF" d="M435.1,95.75c6.334,6.333,9.5,14,9.5,23c0,9.033-3.166,16.733-9.5,23.1c-6.399,6.333-14.1,9.5-23.1,9.5
			s-16.667-3.167-23-9.5c-6.4-6.367-9.6-14.067-9.6-23.1c0-9,3.199-16.667,9.6-23c6.333-6.367,14-9.55,23-9.55
			S428.7,89.383,435.1,95.75z M412,146.35c7.6,0,14.116-2.684,19.55-8.05c5.367-5.4,8.05-11.917,8.05-19.55
			c0-7.6-2.683-14.083-8.05-19.45c-5.434-5.4-11.95-8.1-19.55-8.1s-14.083,2.7-19.45,8.1c-5.434,5.367-8.149,11.85-8.149,19.45
			c0,7.633,2.716,14.15,8.149,19.55C397.917,143.667,404.4,146.35,412,146.35z"/>
		<path fill="#6FC4A9" d="M511.95,174.85c-0.601-6.034-3.983-10.067-10.15-12.1c1.267-4.066,3.8-6.917,7.601-8.55
			c6.899,6.066,9.8,11.55,8.699,16.45c-0.433,1.9-1.232,3.417-2.399,4.55C514.233,176.066,512.983,175.95,511.95,174.85z
			 M477.6,178.25c-1.666,0.934-3.283,1.35-4.85,1.25c-1.767-0.533-2.467-1.65-2.1-3.35c3.899-4.367,4.583-9.483,2.05-15.35
			c3.866-1.767,7.684-1.767,11.45,0C484.217,170,482.033,175.816,477.6,178.25z"/>
		<path fill="#6FC4A9" d="M492,94.3c5.934,0,11,2.1,15.2,6.3c4.2,4.2,6.3,9.267,6.3,15.2v40.4c0,3.633-2.1,6.733-6.3,9.3
			c-4.2,2.533-9.267,3.8-15.2,3.8s-11-1.267-15.2-3.8c-4.2-2.566-6.3-5.667-6.3-9.3v-40.4c0-5.933,2.1-11,6.3-15.2
			C481,96.4,486.066,94.3,492,94.3z"/>
		<path fill="#347E67" d="M509.35,130.65c-0.966,1-2.116,1.5-3.449,1.5c-1.4,0-2.601-0.5-3.601-1.5
			c-0.934-0.933-1.399-2.066-1.399-3.4s0.466-2.5,1.399-3.5c1-0.967,2.2-1.45,3.601-1.45c1.333,0,2.483,0.483,3.449,1.45
			c1,1,1.5,2.167,1.5,3.5S510.35,129.717,509.35,130.65z M493.15,127.25c0,1.333-0.5,2.467-1.5,3.4c-0.967,1-2.117,1.5-3.45,1.5
			c-1.4,0-2.601-0.5-3.601-1.5c-0.933-0.933-1.399-2.066-1.399-3.4s0.467-2.5,1.399-3.5c1-0.967,2.2-1.45,3.601-1.45
			c1.333,0,2.483,0.483,3.45,1.45C492.65,124.75,493.15,125.917,493.15,127.25z"/>
		<path fill="#347E67" d="M498.75,136c0.5,0.5,0.75,1.1,0.75,1.8c0,0.7-0.25,1.284-0.75,1.75c-0.467,0.5-1.05,0.75-1.75,0.75
			s-1.3-0.25-1.8-0.75c-0.467-0.466-0.7-1.05-0.7-1.75c0-0.7,0.233-1.3,0.7-1.8c0.5-0.467,1.1-0.7,1.8-0.7
			S498.283,135.533,498.75,136z"/>
		<path fill="#6FC4A9" d="M511.9,142c3.966,2.467,7.283,1.316,9.949-3.45c0.367-0.633,0.867-1.05,1.5-1.25
			c0.667-0.167,1.301-0.083,1.9,0.25c0.6,0.367,1,0.867,1.2,1.5c0.167,0.634,0.083,1.267-0.25,1.9c-4,7.333-10.2,10.366-18.601,9.1
			l-0.3-0.05L511.9,142z M472.4,138.9v9.2c-4.667-0.133-6.95,2.533-6.851,8c0,0.7-0.233,1.3-0.7,1.8c-0.466,0.5-1.05,0.75-1.75,0.75
			c-0.699,0-1.3-0.233-1.8-0.7c-0.467-0.467-0.717-1.05-0.75-1.75c-0.2-8.367,3.65-14.1,11.55-17.2L472.4,138.9z"/>
		<path fill="#FFFFFF" d="M492,86.2c9,0,16.7,3.183,23.1,9.55c6.334,6.333,9.5,14,9.5,23c0,9.033-3.166,16.733-9.5,23.1
			c-6.399,6.333-14.1,9.5-23.1,9.5s-16.667-3.167-23-9.5c-6.4-6.367-9.6-14.067-9.6-23.1c0-9,3.199-16.667,9.6-23
			C475.333,89.383,483,86.2,492,86.2z M492,91.2c-7.6,0-14.083,2.7-19.45,8.1c-5.434,5.367-8.149,11.85-8.149,19.45
			c0,7.633,2.716,14.15,8.149,19.55c5.367,5.367,11.851,8.05,19.45,8.05s14.116-2.684,19.55-8.05c5.367-5.4,8.05-11.917,8.05-19.55
			c0-7.6-2.683-14.083-8.05-19.45C506.116,93.9,499.6,91.2,492,91.2z"/>
		<path opacity="0.2" fill="#FFFFFF" enable-background="new    " d="M472.55,99.3c5.367-5.4,11.851-8.1,19.45-8.1
			s14.116,2.7,19.55,8.1c5.367,5.367,8.05,11.85,8.05,19.45c0,7.633-2.683,14.15-8.05,19.55c-5.434,5.367-11.95,8.05-19.55,8.05
			s-14.083-2.684-19.45-8.05c-5.434-5.4-8.149-11.917-8.149-19.55C464.4,111.15,467.116,104.667,472.55,99.3z M510.1,115.05
			c1.834-1.833,2.75-4.05,2.75-6.65s-0.916-4.816-2.75-6.65c-1.833-1.867-4.05-2.8-6.649-2.8c-2.601,0-4.816,0.933-6.65,2.8
			c-1.866,1.833-2.8,4.05-2.8,6.65s0.934,4.817,2.8,6.65c1.834,1.833,4.05,2.75,6.65,2.75
			C506.05,117.8,508.267,116.883,510.1,115.05z"/>
		<path opacity="0.302" fill="#FFFFFF" enable-background="new    " d="M512.85,108.4c0,2.6-0.916,4.817-2.75,6.65
			c-1.833,1.833-4.05,2.75-6.649,2.75c-2.601,0-4.816-0.917-6.65-2.75c-1.866-1.833-2.8-4.05-2.8-6.65s0.934-4.816,2.8-6.65
			c1.834-1.867,4.05-2.8,6.65-2.8c2.6,0,4.816,0.933,6.649,2.8C511.934,103.583,512.85,105.8,512.85,108.4z"/>
		<path fill="#DC44EE" d="M245.25,253.25c0-0.467,0.333-0.883,1-1.25l0.1-0.05l5.25,1l0.05,0.3c0,0.467-0.3,0.867-0.9,1.2l-2.3,0.5
			l-2.2-0.5C245.583,254.117,245.25,253.717,245.25,253.25z M242.75,255.85c-0.967,0-1.783,0.15-2.45,0.45l-0.8,0.55l-0.3,0.2
			l-0.5,0.05l-0.35-0.2l-0.1-0.25c0.2-0.333,0.6-0.633,1.2-0.9c0.933-0.367,2.033-0.55,3.3-0.55s2.35,0.183,3.25,0.55
			c0.567,0.267,0.967,0.55,1.2,0.85v0.25c-0.067,0.133-0.184,0.2-0.35,0.2h-0.5l-0.35-0.2l-0.8-0.55
			C244.5,256,243.683,255.85,242.75,255.85z M239.45,252.05c0.566,0.333,0.85,0.733,0.85,1.2s-0.3,0.867-0.9,1.2
			c-0.633,0.333-1.4,0.5-2.3,0.5c-0.867,0-1.6-0.167-2.2-0.5c-0.667-0.333-1-0.733-1-1.2l0.1-0.45L239.45,252.05z"/>
		<path fill="#E98AF4" d="M154.9,237.5c3.7-3.9,8.483-5.85,14.35-5.85s11.083,1.95,15.65,5.85c4.533,3.9,7.083,8.617,7.65,14.15
			c0.233,2.267,0.117,4.383-0.35,6.35h-40.35c-0.9-1.967-1.467-4.083-1.7-6.35C149.583,246.117,151.167,241.4,154.9,237.5z
			 M182.85,240.8c0.3-0.267,0.417-0.6,0.35-1c-0.034-0.433-0.217-0.783-0.55-1.05c-0.333-0.3-0.717-0.45-1.15-0.45
			s-0.783,0.15-1.05,0.45c-0.267,0.267-0.383,0.617-0.35,1.05c0.066,0.4,0.25,0.733,0.55,1c0.333,0.3,0.717,0.45,1.15,0.45
			C182.233,241.25,182.583,241.1,182.85,240.8z M174.1,236.45c-0.867,0-1.567,0.283-2.1,0.85c-0.533,0.567-0.767,1.25-0.7,2.05
			c0.1,0.833,0.483,1.533,1.15,2.1c0.633,0.566,1.383,0.85,2.25,0.85s1.583-0.283,2.15-0.85c0.533-0.567,0.75-1.267,0.65-2.1
			c-0.067-0.8-0.433-1.483-1.1-2.05C175.733,236.733,174.967,236.45,174.1,236.45z M177.2,242.85c-0.567,0.6-0.817,1.316-0.75,2.15
			c0.1,0.867,0.5,1.6,1.2,2.2c0.7,0.6,1.5,0.9,2.4,0.9c0.9,0,1.633-0.3,2.2-0.9c0.567-0.6,0.8-1.333,0.7-2.2
			c-0.067-0.833-0.45-1.55-1.15-2.15c-0.7-0.6-1.5-0.9-2.4-0.9S177.767,242.25,177.2,242.85z"/>
		<path fill="#EDA3F5" d="M183.2,239.8c0.066,0.4-0.05,0.733-0.35,1c-0.267,0.3-0.617,0.45-1.05,0.45c-0.433,0-0.816-0.15-1.15-0.45
			c-0.3-0.267-0.483-0.6-0.55-1c-0.033-0.433,0.083-0.783,0.35-1.05c0.267-0.3,0.617-0.45,1.05-0.45s0.817,0.15,1.15,0.45
			C182.983,239.017,183.167,239.367,183.2,239.8z M172,237.3c0.533-0.566,1.233-0.85,2.1-0.85s1.633,0.283,2.3,0.85
			c0.667,0.567,1.033,1.25,1.1,2.05c0.1,0.833-0.117,1.533-0.65,2.1c-0.567,0.566-1.283,0.85-2.15,0.85s-1.617-0.283-2.25-0.85
			c-0.667-0.567-1.05-1.267-1.15-2.1C171.233,238.55,171.467,237.867,172,237.3z M176.45,245c-0.067-0.833,0.183-1.55,0.75-2.15
			c0.566-0.6,1.3-0.9,2.2-0.9s1.7,0.3,2.4,0.9c0.7,0.6,1.083,1.316,1.15,2.15c0.1,0.867-0.133,1.6-0.7,2.2
			c-0.567,0.6-1.3,0.9-2.2,0.9c-0.9,0-1.7-0.3-2.4-0.9C176.95,246.6,176.55,245.867,176.45,245z"/>
		<path fill="#DC44EE" d="M172.7,245.75c0,0.867-0.333,1.6-1,2.2c-0.6,0.633-1.333,0.95-2.2,0.95s-1.633-0.316-2.3-0.95
			c-0.6-0.6-0.9-1.333-0.9-2.2l0.05-0.5l5.25-1.85l0.1,0.1C172.367,244.167,172.7,244.917,172.7,245.75z M166.25,251.35
			c-0.7-0.534-1.517-0.8-2.45-0.8c-0.966,0-1.783,0.267-2.45,0.8c-0.4,0.3-0.667,0.633-0.8,1l-0.3,0.35l-0.5,0.1l-0.35-0.35
			l-0.1-0.5c0.2-0.6,0.6-1.134,1.2-1.6c0.933-0.7,2.033-1.05,3.3-1.05c1.267,0,2.35,0.35,3.25,1.05
			c0.567,0.466,0.967,0.983,1.2,1.55v0.5l-0.35,0.35h-0.5l-0.35-0.35L166.25,251.35z M161.35,245.75c0,0.867-0.333,1.6-1,2.2
			c-0.6,0.633-1.333,0.95-2.2,0.95c-0.9,0-1.667-0.316-2.3-0.95c-0.6-0.6-0.9-1.333-0.9-2.2c0-0.8,0.283-1.533,0.85-2.2l5.45,1.45
			L161.35,245.75z"/>
		<path fill="#E98AF4" d="M92,230.05c5.867,0,10.867,2.067,15,6.2s6.2,9.133,6.2,15c0,2.4-0.333,4.65-1,6.75H71.85
			c-0.7-2.1-1.05-4.35-1.05-6.75c0-5.867,2.067-10.867,6.2-15S86.133,230.05,92,230.05z M96.35,235.1c-0.867,0-1.6,0.3-2.2,0.9
			s-0.9,1.333-0.9,2.2c0,0.866,0.3,1.6,0.9,2.2s1.333,0.9,2.2,0.9s1.6-0.3,2.2-0.9c0.6-0.6,0.9-1.333,0.9-2.2
			c0-0.867-0.3-1.6-0.9-2.2C97.95,235.4,97.217,235.1,96.35,235.1z M105.1,238.65c0-0.433-0.15-0.8-0.45-1.1
			c-0.3-0.3-0.667-0.45-1.1-0.45c-0.433,0-0.8,0.15-1.1,0.45c-0.3,0.3-0.45,0.667-0.45,1.1c0,0.434,0.15,0.8,0.45,1.1
			c0.3,0.3,0.667,0.45,1.1,0.45c0.434,0,0.8-0.15,1.1-0.45C104.95,239.45,105.1,239.083,105.1,238.65z M101.05,247.45
			c0.9,0,1.667-0.317,2.3-0.95s0.95-1.4,0.95-2.3c0-0.9-0.316-1.667-0.95-2.3s-1.4-0.95-2.3-0.95c-0.9,0-1.667,0.316-2.3,0.95
			s-0.95,1.4-0.95,2.3c0,0.9,0.317,1.667,0.95,2.3S100.15,247.45,101.05,247.45z"/>
		<path fill="#EDA3F5" d="M94.15,236c0.6-0.6,1.333-0.9,2.2-0.9s1.6,0.3,2.2,0.9c0.6,0.6,0.9,1.333,0.9,2.2c0,0.866-0.3,1.6-0.9,2.2
			c-0.6,0.6-1.333,0.9-2.2,0.9s-1.6-0.3-2.2-0.9s-0.9-1.333-0.9-2.2C93.25,237.333,93.55,236.6,94.15,236z M104.65,237.55
			c0.3,0.3,0.45,0.667,0.45,1.1c0,0.434-0.15,0.8-0.45,1.1c-0.3,0.3-0.667,0.45-1.1,0.45c-0.433,0-0.8-0.15-1.1-0.45
			c-0.3-0.3-0.45-0.667-0.45-1.1c0-0.433,0.15-0.8,0.45-1.1c0.3-0.3,0.667-0.45,1.1-0.45C103.983,237.1,104.35,237.25,104.65,237.55
			z M103.35,246.5c-0.633,0.633-1.4,0.95-2.3,0.95c-0.9,0-1.667-0.317-2.3-0.95s-0.95-1.4-0.95-2.3c0-0.9,0.317-1.667,0.95-2.3
			s1.4-0.95,2.3-0.95c0.9,0,1.667,0.316,2.3,0.95s0.95,1.4,0.95,2.3C104.3,245.1,103.983,245.867,103.35,246.5z"/>
		<path fill="#DC44EE" d="M91.7,243.5c0.667,0.667,1,1.417,1,2.25c0,0.867-0.333,1.6-1,2.2c-0.6,0.633-1.333,0.95-2.2,0.95
			s-1.633-0.316-2.3-0.95c-0.6-0.6-0.9-1.333-0.9-2.2l0.05-0.5l5.25-1.85L91.7,243.5z M86.25,251.35c-0.7-0.534-1.517-0.8-2.45-0.8
			c-0.966,0-1.783,0.267-2.45,0.8c-0.4,0.3-0.667,0.633-0.8,1l-0.3,0.35l-0.5,0.1l-0.35-0.35l-0.1-0.5c0.2-0.6,0.6-1.134,1.2-1.6
			c0.933-0.7,2.033-1.05,3.3-1.05c1.267,0,2.35,0.35,3.25,1.05c0.567,0.466,0.967,0.983,1.2,1.55v0.5l-0.35,0.35h-0.5l-0.35-0.35
			L86.25,251.35z M81.35,245.75c0,0.867-0.333,1.6-1,2.2c-0.6,0.633-1.333,0.95-2.2,0.95c-0.9,0-1.667-0.316-2.3-0.95
			c-0.6-0.6-0.9-1.333-0.9-2.2c0-0.8,0.283-1.533,0.85-2.2l5.45,1.45L81.35,245.75z"/>
		<path fill="#FFFFFF" d="M242.4,323.6l-0.3,1.5c-0.8,2.667-2.417,5.217-4.85,7.65c-2.467,2.467-5.017,4.084-7.65,4.85
			c-2.7,0.768-4.717,0.484-6.05-0.85c-1.367-1.367-1.65-3.383-0.85-6.05c2.767-0.134,5.65-1.083,8.65-2.851
			c3.033-1.732,5.1-3.982,6.2-6.75c1.1-2.732,2.333-3.416,3.7-2.05C242.317,320.117,242.7,321.633,242.4,323.6z M222.7,330.7v-0.05
			V330.7z"/>
		<path fill="#D5D5D5" d="M222.7,330.65c-2.3-0.7-3.684-1.884-4.15-3.551c-0.5-1.833,0.867-2.699,4.1-2.6c3.267,0.1,6.267-0.8,9-2.7
			c2.767-1.899,5.167-3.033,7.2-3.399c2.066-0.367,3.35,0.366,3.85,2.199c0.267,1,0.167,2-0.3,3c0.3-1.967-0.083-3.482-1.15-4.55
			c-1.367-1.366-2.6-0.683-3.7,2.05c-1.1,2.768-3.167,5.018-6.2,6.75C228.35,329.617,225.467,330.55,222.7,330.65z"/>
		<path fill="#404040" d="M251.75,337.6c5.033,0,9.333-1.783,12.9-5.35c3.567-3.566,5.35-7.867,5.35-12.9
			c0-3.732-0.983-7.066-2.95-10l-2.4-0.949c-3.566-1.2-7.867-1.801-12.9-1.801s-9.333,0.601-12.9,1.801
			c-0.934,0.3-1.733,0.616-2.4,0.949c-1.967,2.934-2.95,6.268-2.95,10c0,5.033,1.783,9.334,5.35,12.9
			C242.417,335.816,246.717,337.6,251.75,337.6z"/>
		<path fill="#999999" d="M243.1,319.5c-0.567-0.566-1.267-0.85-2.1-0.85c-0.767,0-1.433,0.283-2,0.85c-0.6,0.533-0.9,1.2-0.9,2
			l0.1,0.7l4.95,1.3c0.5-0.6,0.75-1.267,0.75-2C243.9,320.7,243.633,320.033,243.1,319.5z M242.05,315.85
			c0.167,0.566,0.517,1.051,1.05,1.45c0.867,0.667,1.867,1,3,1c1.167,0,2.15-0.333,2.95-1c0.534-0.399,0.9-0.866,1.1-1.399v-0.45
			l-0.3-0.3h-0.45l-0.35,0.3l-0.7,0.95c-0.633,0.5-1.383,0.75-2.25,0.75s-1.6-0.25-2.2-0.75c-0.367-0.268-0.617-0.566-0.75-0.9
			l-0.25-0.3l-0.45-0.101c-0.167,0.066-0.284,0.167-0.35,0.301C242.033,315.533,242.017,315.684,242.05,315.85z M249.4,323.65
			l4.75-1.7l0.05-0.45c0-0.8-0.267-1.467-0.8-2c-0.6-0.566-1.3-0.85-2.1-0.85c-0.767,0-1.433,0.283-2,0.85c-0.6,0.533-0.9,1.2-0.9,2
			c0,0.767,0.3,1.45,0.9,2.05L249.4,323.65z"/>
		<path fill="#FFFFFF" d="M273.8,327.85c-3.033-1.732-5.1-3.982-6.2-6.75c-1.1-2.732-2.333-3.416-3.7-2.05
			c-1.066,1.067-1.45,2.583-1.15,4.55l0.3,1.5c0.8,2.667,2.417,5.217,4.85,7.65c2.467,2.467,5.017,4.084,7.65,4.85
			c2.7,0.768,4.717,0.484,6.05-0.85c1.367-1.367,1.65-3.383,0.85-6.05C279.683,330.566,276.8,329.617,273.8,327.85z M282.45,330.7
			v-0.05V330.7z"/>
		<path fill="#D5D5D5" d="M273.8,327.85c3,1.768,5.883,2.7,8.65,2.801c2.3-0.7,3.683-1.884,4.15-3.551
			c0.5-1.833-0.867-2.699-4.1-2.6c-3.267,0.1-6.267-0.8-9-2.7c-2.767-1.899-5.167-3.033-7.2-3.399
			c-2.066-0.367-3.35,0.366-3.85,2.199c-0.267,1-0.167,2,0.3,3c-0.3-1.967,0.083-3.482,1.15-4.55c1.367-1.366,2.6-0.683,3.7,2.05
			C268.7,323.867,270.767,326.117,273.8,327.85z"/>
		<path fill="#FFFFFF" d="M147.35,321.2c2.433-2.434,5-4.034,7.7-4.8c2.667-0.801,4.684-0.518,6.05,0.85
			c1.066,1.066,1.45,2.584,1.15,4.55l-0.3,1.5c-0.8,2.667-2.417,5.217-4.85,7.65c-2.467,2.466-5.017,4.083-7.65,4.85
			c-2.7,0.767-4.717,0.483-6.05-0.85c-1.367-1.366-1.65-3.384-0.85-6.05C143.283,326.233,144.883,323.666,147.35,321.2z
			 M142.55,328.9v-0.051V328.9z"/>
		<path fill="#D5D5D5" d="M147.35,321.2c-2.467,2.466-4.067,5.017-4.8,7.649c-2.3-0.699-3.683-1.883-4.15-3.55
			c-0.5-1.833,0.267-3.716,2.3-5.649c1.966-1.967,4.633-3.4,8-4.301l9.1-0.3c2.667,0.667,4.25,1.917,4.75,3.75
			c0.267,1,0.167,2-0.3,3c0.3-1.966-0.083-3.483-1.15-4.55c-1.367-1.367-3.383-1.65-6.05-0.85
			C152.35,317.166,149.783,318.767,147.35,321.2z"/>
		<path fill="#404040" d="M171.75,307c5.033,0,9.333,1.783,12.9,5.35c3.567,3.566,5.35,7.867,5.35,12.9c0,3.733-0.983,7.066-2.95,10
			l-2.4,0.95c-3.566,1.2-7.867,1.8-12.9,1.8s-9.333-0.6-12.9-1.8l-2.4-0.95c-1.967-2.934-2.95-6.267-2.95-10
			c0-5.033,1.783-9.334,5.35-12.9C162.417,308.783,166.717,307,171.75,307z"/>
		<path fill="#999999" d="M158.1,323.1c0-0.732,0.25-1.399,0.75-2l4.95,1.301l0.1,0.699c0,0.801-0.3,1.467-0.9,2
			c-0.567,0.566-1.233,0.851-2,0.851c-0.833,0-1.533-0.284-2.1-0.851C158.367,324.566,158.1,323.9,158.1,323.1z M166.1,327.45
			c-0.867,0-1.6,0.25-2.2,0.75c-0.367,0.267-0.617,0.566-0.75,0.899l-0.25,0.301l-0.45,0.1l-0.35-0.3l-0.05-0.45
			c0.167-0.566,0.517-1.05,1.05-1.45c0.867-0.667,1.867-1,3-1c1.167,0,2.15,0.333,2.95,1c0.534,0.4,0.9,0.866,1.1,1.4v0.45l-0.3,0.3
			h-0.45l-0.35-0.3l-0.7-0.95C167.717,327.7,166.967,327.45,166.1,327.45z M173.2,320.95l0.1,0.1c0.6,0.601,0.9,1.284,0.9,2.05
			c0,0.801-0.3,1.467-0.9,2c-0.566,0.566-1.233,0.851-2,0.851c-0.8,0-1.5-0.284-2.1-0.851c-0.534-0.533-0.8-1.199-0.8-2l0.05-0.449
			L173.2,320.95z"/>
		<path fill="#FFFFFF" d="M182.75,321.8l0.3,1.5c0.8,2.667,2.417,5.217,4.85,7.65c2.467,2.466,5.017,4.083,7.65,4.85
			c2.7,0.767,4.717,0.483,6.05-0.85c1.367-1.366,1.65-3.384,0.85-6.05c-0.733-2.667-2.333-5.234-4.8-7.7
			c-2.433-2.434-5-4.034-7.7-4.8c-2.667-0.801-4.684-0.518-6.05,0.85C182.833,318.316,182.45,319.834,182.75,321.8z M202.45,328.9
			v-0.051V328.9z"/>
		<path fill="#D5D5D5" d="M202.45,328.85c2.3-0.699,3.683-1.883,4.15-3.55c0.5-1.833-0.267-3.716-2.3-5.649
			c-1.966-1.967-4.633-3.4-8-4.301l-9.1-0.3c-2.667,0.667-4.25,1.917-4.75,3.75c-0.267,1-0.167,2,0.3,3
			c-0.3-1.966,0.083-3.483,1.15-4.55c1.367-1.367,3.383-1.65,6.05-0.85c2.7,0.766,5.267,2.366,7.7,4.8
			C200.117,323.666,201.717,326.217,202.45,328.85z"/>
		<path fill="#FFFFFF" d="M82.25,321l-0.3-1.5c-0.8-2.666-2.417-5.217-4.85-7.65c-2.467-2.467-5.017-4.083-7.65-4.85
			c-2.7-0.767-4.717-0.483-6.05,0.85c-1.367,1.367-1.65,3.384-0.85,6.051c0.733,2.666,2.333,5.232,4.8,7.699
			c2.433,2.434,5,4.033,7.7,4.801c2.667,0.8,4.684,0.516,6.05-0.851C82.167,324.483,82.55,322.967,82.25,321z M62.55,313.9v0.05
			V313.9z"/>
		<path fill="#D5D5D5" d="M62.55,313.95c-2.3,0.7-3.683,1.884-4.15,3.55c-0.5,1.834,0.267,3.717,2.3,5.65
			c1.966,1.967,4.633,3.399,8,4.3l9.1,0.3c2.667-0.666,4.25-1.916,4.75-3.75c0.267-1,0.167-2-0.3-3c0.3,1.967-0.083,3.483-1.15,4.55
			c-1.367,1.366-3.383,1.65-6.05,0.851c-2.7-0.768-5.267-2.367-7.7-4.801C64.883,319.133,63.283,316.584,62.55,313.95z"/>
		<path fill="#404040" d="M91.75,307c5.033,0,9.333,1.783,12.9,5.35c3.567,3.566,5.35,7.867,5.35,12.9c0,3.733-0.983,7.066-2.95,10
			l-2.4,0.95c-3.566,1.2-7.867,1.8-12.9,1.8s-9.333-0.6-12.9-1.8l-2.4-0.95c-1.967-2.934-2.95-6.267-2.95-10
			c0-5.033,1.783-9.334,5.35-12.9C82.417,308.783,86.717,307,91.75,307z"/>
		<path fill="#999999" d="M78.1,323.1c0-0.732,0.25-1.399,0.75-2l4.95,1.301l0.1,0.699c0,0.801-0.3,1.467-0.9,2
			c-0.567,0.566-1.233,0.851-2,0.851c-0.833,0-1.533-0.284-2.1-0.851C78.367,324.566,78.1,323.9,78.1,323.1z M93.2,320.95l0.1,0.1
			c0.6,0.601,0.9,1.284,0.9,2.05c0,0.801-0.3,1.467-0.9,2c-0.566,0.566-1.233,0.851-2,0.851c-0.8,0-1.5-0.284-2.1-0.851
			c-0.534-0.533-0.8-1.199-0.8-2l0.05-0.449L93.2,320.95z M86.1,327.45c-0.867,0-1.6,0.25-2.2,0.75
			c-0.367,0.267-0.617,0.566-0.75,0.899L82.9,329.4l-0.45,0.1l-0.35-0.3l-0.05-0.45c0.167-0.566,0.517-1.05,1.05-1.45
			c0.867-0.667,1.867-1,3-1c1.167,0,2.15,0.333,2.95,1l1.1,1.4v0.45l-0.3,0.3H89.4l-0.35-0.3l-0.7-0.95
			C87.717,327.7,86.967,327.45,86.1,327.45z"/>
		<path fill="#FFFFFF" d="M117.65,321.6c-2.433,2.434-5,4.033-7.7,4.801c-2.667,0.8-4.684,0.516-6.05-0.851
			c-1.066-1.066-1.45-2.583-1.15-4.55l0.3-1.5c0.8-2.666,2.417-5.217,4.85-7.65c2.467-2.467,5.017-4.083,7.65-4.85
			c2.7-0.767,4.717-0.483,6.05,0.85c1.367,1.367,1.65,3.384,0.85,6.051C121.717,316.566,120.117,319.133,117.65,321.6z
			 M122.45,313.9v0.05V313.9z"/>
		<path fill="#D5D5D5" d="M117.65,321.6c2.467-2.467,4.067-5.016,4.8-7.649c2.3,0.7,3.683,1.884,4.15,3.55
			c0.5,1.834-0.267,3.717-2.3,5.65c-1.966,1.967-4.633,3.399-8,4.3l-9.1,0.3c-2.667-0.666-4.25-1.916-4.75-3.75
			c-0.267-1-0.167-2,0.3-3c-0.3,1.967,0.083,3.483,1.15,4.55c1.367,1.366,3.383,1.65,6.05,0.851
			C112.65,325.633,115.217,324.033,117.65,321.6z"/>
		
			<linearGradient id="SVGID_1_" gradientUnits="userSpaceOnUse" x1="1609.752" y1="-1764.3516" x2="3248.1685" y2="-1764.3516" gradientTransform="matrix(0 0.0409 0.0384 0 726.7394 367.1839)">
			<stop  offset="0" style="stop-color:#FFFFFF"/>
			<stop  offset="1" style="stop-color:#CCF3F7"/>
		</linearGradient>
		<path fill="url(#SVGID_1_)" d="M713.75,455.2c4.033,4.033,6.05,8.883,6.05,14.55c0,3.934-0.967,7.467-2.899,10.6l0.3,0.25
			c3.866,3.867,5.8,8.534,5.8,14l-0.25,3.4h-125.8c-1.367-2.7-2.05-5.667-2.05-8.9c0-5.466,1.949-10.149,5.85-14.05
			c2.4-2.399,5.133-4.066,8.2-5l-0.05-1.649c0-5.7,1.983-10.551,5.949-14.551c4.034-4,8.884-6,14.551-6
			c2.899,0,5.583,0.534,8.05,1.601c0.866-3.2,2.566-6.066,5.1-8.601c3.867-3.866,8.533-5.8,14-5.8c5.5,0,10.184,1.934,14.05,5.8
			c2.7,2.7,4.45,5.784,5.25,9.25h0.45c4,0,7.583,1.034,10.75,3.101c3.533-2.667,7.601-4,12.2-4
			C704.917,449.2,709.75,451.2,713.75,455.2z M675.85,450.1l0.051,0.051L675.85,450.1z M654.45,471.15l0.05-0.051l-0.2-0.1
			L654.45,471.15z M651.9,474.25l0.399,0.1l0.101-0.6L651.9,474.25z"/>
		
			<linearGradient id="SVGID_2_" gradientUnits="userSpaceOnUse" x1="1709.6436" y1="-1763.0391" x2="3348.0437" y2="-1763.0391" gradientTransform="matrix(0 0.0392 0.0384 0 427.8391 367.3424)">
			<stop  offset="0" style="stop-color:#FFFFFF"/>
			<stop  offset="1" style="stop-color:#CCF3F7"/>
		</linearGradient>
		<path fill="url(#SVGID_2_)" d="M296.05,489.1c0-5.466,1.934-10.149,5.8-14.05c3.6-3.6,7.917-5.517,12.95-5.75
			c0.434-4.633,2.334-8.633,5.7-12c3.9-3.866,8.583-5.8,14.05-5.8l3.5,0.3c0.601-4.166,2.467-7.816,5.601-10.95
			c3.866-3.866,8.55-5.8,14.05-5.8c5.467,0,10.133,1.934,14,5.8c3.899,3.9,5.85,8.584,5.85,14.051l-0.1,2
			c5.467,0,10.133,1.949,14,5.85l1.7,1.9c2.6-2.434,5.699-3.65,9.3-3.65c3.833,0,7.1,1.35,9.8,4.05s4.05,5.967,4.05,9.8
			c0,1.301-0.133,2.517-0.399,3.65l2.399,2.1c3.9,3.867,5.851,8.534,5.851,14l-0.25,3.4H298.1
			C296.733,495.3,296.05,492.333,296.05,489.1z M393.2,464.7l-0.05-0.05l-0.5,0.399L393.2,464.7z M389.85,480.7l0.101,0.2l0.3-0.301
			L389.85,480.7z"/>
		
			<linearGradient id="SVGID_3_" gradientUnits="userSpaceOnUse" x1="1760.875" y1="-1764.3672" x2="3399.9375" y2="-1764.3672" gradientTransform="matrix(0 0.0384 0.0384 0 577.6896 367.4205)">
			<stop  offset="0" style="stop-color:#FFFFFF"/>
			<stop  offset="1" style="stop-color:#CCF3F7"/>
		</linearGradient>
		<path fill="url(#SVGID_3_)" d="M573.7,498H447.9c-1.367-2.7-2.051-5.667-2.051-8.9c0-5.466,1.95-10.149,5.851-14.05
			c2.767-2.767,5.95-4.533,9.55-5.3c0.5-0.767,1.1-1.5,1.8-2.2c2.7-2.7,5.967-4.05,9.8-4.05l1.851,0.1l1.45-1.649
			c3.3-3.267,7.149-5.2,11.55-5.8l-0.05-1.25c0-5.467,1.949-10.15,5.85-14.051c3.866-3.866,8.533-5.8,14-5.8
			c5.5,0,10.184,1.934,14.05,5.8c2.7,2.7,4.45,5.784,5.25,9.25h0.45c5.5,0,10.184,1.934,14.05,5.801c3.867,3.866,5.8,8.55,5.8,14.05
			c0,2.267-0.316,4.416-0.949,6.45c2.399-1.101,5.05-1.65,7.949-1.65c5.467,0,10.15,1.95,14.051,5.85c3.866,3.867,5.8,8.534,5.8,14
			L573.7,498z M526.8,450.1l0.05,0.051L526.8,450.1z M472.3,491.2l0.05,0.25l0.5-0.25H472.3z"/>
	</g>
</g>
</svg>
